<svg xmlns="http://www.w3.org/2000/svg" width="350.29290771484375" height="348.92083740234375" viewBox="-174.6053924560547 -170.31349182128906 350.29290771484375 348.92083740234375"><title>Neo4j Graph Visualization</title><desc>Created using Neo4j (http://www.neo4j.com/)</desc><g class="layer relationships"><g class="relationship" transform="translate(59.77315590581147 145.86023135799022) rotate(247.33192112976462)"><path class="b-outline" fill="#A5ABB6" stroke="none" d="M 25 0.5 L 48.37882118629015 0.5 L 48.37882118629015 -0.5 L 25 -0.5 Z M 93.94132118629015 0.5 L 117.3201423725803 0.5 L 117.3201423725803 3.5 L 124.3201423725803 0 L 117.3201423725803 -3.5 L 117.3201423725803 -0.5 L 93.94132118629015 -0.5 Z"/><text text-anchor="middle" pointer-events="none" font-size="8px" fill="#000000" x="71.16007118629015" y="3" transform="rotate(180 71.16007118629015 0)" font-family="Helvetica Neue, Helvetica, Arial, sans-serif">ACTED_IN</text></g><g class="relationship" transform="translate(136.507292444936 73.65795235205212) rotate(206.03106159321908)"><path class="b-outline" fill="#A5ABB6" stroke="none" d="M 25 0.5 L 53.33365887197276 0.5 L 53.33365887197276 -0.5 L 25 -0.5 Z M 89.10709637197276 0.5 L 117.44075524394552 0.5 L 117.44075524394552 3.5 L 124.44075524394552 0 L 117.44075524394552 -3.5 L 117.44075524394552 -0.5 L 89.10709637197276 -0.5 Z"/><text text-anchor="middle" pointer-events="none" font-size="8px" fill="#000000" x="71.22037762197276" y="3" transform="rotate(180 71.22037762197276 0)" font-family="Helvetica Neue, Helvetica, Arial, sans-serif">WROTE</text></g><g class="relationship" transform="translate(146.68752823629336 -31.31805002885629) rotate(524.7470293047801)"><path class="b-outline" fill="#A5ABB6" stroke="none" d="M 25 0.5 L 47.922588852330094 0.5 L 47.922588852330094 -0.5 L 25 -0.5 Z M 94.8132138523301 0.5 L 117.73580270466019 0.5 L 117.73580270466019 3.5 L 124.73580270466019 0 L 117.73580270466019 -3.5 L 117.73580270466019 -0.5 L 94.8132138523301 -0.5 Z"/><text text-anchor="middle" pointer-events="none" font-size="8px" fill="#000000" x="71.3679013523301" y="3" transform="rotate(180 71.3679013523301 0)" font-family="Helvetica Neue, Helvetica, Arial, sans-serif">DIRECTED</text></g><g class="relationship" transform="translate(89.72411426345563 -113.24943125856366) rotate(485.7987807601405)"><path class="b-outline" fill="#A5ABB6" stroke="none" d="M 25 0.5 L 48.51076796435608 0.5 L 48.51076796435608 -0.5 L 25 -0.5 Z M 94.07326796435608 0.5 L 117.58403592871215 0.5 L 117.58403592871215 3.5 L 124.58403592871215 0 L 117.58403592871215 -3.5 L 117.58403592871215 -0.5 L 94.07326796435608 -0.5 Z"/><text text-anchor="middle" pointer-events="none" font-size="8px" fill="#000000" x="71.29201796435608" y="3" transform="rotate(180 71.29201796435608 0)" font-family="Helvetica Neue, Helvetica, Arial, sans-serif">ACTED_IN</text></g><g class="relationship" transform="translate(-6.2897436480044915 -141.31349189489623) rotate(446.73729336315364)"><path class="b-outline" fill="#A5ABB6" stroke="none" d="M 25 0.5 L 48.53408120028418 0.5 L 48.53408120028418 -0.5 L 25 -0.5 Z M 94.09658120028418 0.5 L 117.63066240056835 0.5 L 117.63066240056835 3.5 L 124.63066240056835 0 L 117.63066240056835 -3.5 L 117.63066240056835 -0.5 L 94.09658120028418 -0.5 Z"/><text text-anchor="middle" pointer-events="none" font-size="8px" fill="#000000" x="71.31533120028418" y="3" font-family="Helvetica Neue, Helvetica, Arial, sans-serif">ACTED_IN</text></g><g class="relationship" transform="translate(-98.27824442906038 -102.48843305337915) rotate(407.72837238536783)"><path class="b-outline" fill="#A5ABB6" stroke="none" d="M 25 0.5 L 48.42712918803595 0.5 L 48.42712918803595 -0.5 L 25 -0.5 Z M 93.98962918803595 0.5 L 117.4167583760719 0.5 L 117.4167583760719 3.5 L 124.4167583760719 0 L 117.4167583760719 -3.5 L 117.4167583760719 -0.5 L 93.98962918803595 -0.5 Z"/><text text-anchor="middle" pointer-events="none" font-size="8px" fill="#000000" x="71.20837918803595" y="3" font-family="Helvetica Neue, Helvetica, Arial, sans-serif">ACTED_IN</text></g><g class="relationship" transform="translate(-145.6053950259169 -14.610489850741653) rotate(368.724115128874)"><path class="b-outline" fill="#A5ABB6" stroke="none" d="M 25 0.5 L 48.499837635272385 0.5 L 48.499837635272385 -0.5 L 25 -0.5 Z M 94.06233763527239 0.5 L 117.56217527054477 0.5 L 117.56217527054477 3.5 L 124.56217527054477 0 L 117.56217527054477 -3.5 L 117.56217527054477 -0.5 L 94.06233763527239 -0.5 Z"/><text text-anchor="middle" pointer-events="none" font-size="8px" fill="#000000" x="71.28108763527239" y="3" font-family="Helvetica Neue, Helvetica, Arial, sans-serif">ACTED_IN</text></g><g class="relationship" transform="translate(-126.87380853778002 83.59094233969118) rotate(329.67477638052753)"><path class="b-outline" fill="#A5ABB6" stroke="none" d="M 25 0.5 L 48.50104821340274 0.5 L 48.50104821340274 -0.5 L 25 -0.5 Z M 94.06354821340274 0.5 L 117.56459642680548 0.5 L 117.56459642680548 3.5 L 124.56459642680548 0 L 117.56459642680548 -3.5 L 117.56459642680548 -0.5 L 94.06354821340274 -0.5 Z"/><text text-anchor="middle" pointer-events="none" font-size="8px" fill="#000000" x="71.28229821340274" y="3" font-family="Helvetica Neue, Helvetica, Arial, sans-serif">ACTED_IN</text></g><g class="relationship" transform="translate(-45.42829235612765 149.60735765556612) rotate(288.6085935448535)"><path class="b-outline" fill="#A5ABB6" stroke="none" d="M 25 0.5 L 53.283354626846275 0.5 L 53.283354626846275 -0.5 L 25 -0.5 Z M 89.05679212684628 0.5 L 117.34014675369255 0.5 L 117.34014675369255 3.5 L 124.34014675369255 0 L 117.34014675369255 -3.5 L 117.34014675369255 -0.5 L 89.05679212684628 -0.5 Z"/><text text-anchor="middle" pointer-events="none" font-size="8px" fill="#000000" x="71.17007337684628" y="3" font-family="Helvetica Neue, Helvetica, Arial, sans-serif">WROTE</text></g></g><g class="layer nodes"><g class="node" aria-label="graph-node169" transform="translate(2.2263661172669234,8.074630139282629)"><circle class="b-outline" cx="0" cy="0" r="25" fill="#F79767" stroke="#f36924" stroke-width="2px"/><text class="caption" text-anchor="middle" pointer-events="none" x="0" y="-5" font-size="10px" fill="#FFFFFF" font-family="Helvetica Neue, Helvetica, Arial, sans-serif"> Captain</text><text class="caption" text-anchor="middle" pointer-events="none" x="0" y="5" font-size="10px" fill="#FFFFFF" font-family="Helvetica Neue, Helvetica, Arial, sans-serif"> America:</text><text class="caption" text-anchor="middle" pointer-events="none" x="0" y="15" font-size="10px" fill="#FFFFFF" font-family="Helvetica Neue, Helvetica, Arial, sans-serif"> Th</text></g><g class="node" aria-label="graph-node4" transform="translate(59.77315590581147,145.86023135799022)"><circle class="b-outline" cx="0" cy="0" r="25" fill="#C990C0" stroke="#b261a5" stroke-width="2px"/><text class="caption" text-anchor="middle" pointer-events="none" x="0" y="0" font-size="10px" fill="#FFFFFF" font-family="Helvetica Neue, Helvetica, Arial, sans-serif"> Hugo</text><text class="caption" text-anchor="middle" pointer-events="none" x="0" y="10" font-size="10px" fill="#FFFFFF" font-family="Helvetica Neue, Helvetica, Arial, sans-serif"> Weavi…</text></g><g class="node" aria-label="graph-node171" transform="translate(136.507292444936,73.65795235205212)"><circle class="b-outline" cx="0" cy="0" r="25" fill="#C990C0" stroke="#b261a5" stroke-width="2px"/><text class="caption" text-anchor="middle" pointer-events="none" x="0" y="5" font-size="10px" fill="#FFFFFF" font-family="Helvetica Neue, Helvetica, Arial, sans-serif"> Christop…</text></g><g class="node" aria-label="graph-node170" transform="translate(146.68752823629336,-31.31805002885629)"><circle class="b-outline" cx="0" cy="0" r="25" fill="#C990C0" stroke="#b261a5" stroke-width="2px"/><text class="caption" text-anchor="middle" pointer-events="none" x="0" y="0" font-size="10px" fill="#FFFFFF" font-family="Helvetica Neue, Helvetica, Arial, sans-serif"> Joe</text><text class="caption" text-anchor="middle" pointer-events="none" x="0" y="10" font-size="10px" fill="#FFFFFF" font-family="Helvetica Neue, Helvetica, Arial, sans-serif"> Johnst…</text></g><g class="node" aria-label="graph-node177" transform="translate(89.72411426345563,-113.24943125856366)"><circle class="b-outline" cx="0" cy="0" r="25" fill="#C990C0" stroke="#b261a5" stroke-width="2px"/><text class="caption" text-anchor="middle" pointer-events="none" x="0" y="0" font-size="10px" fill="#FFFFFF" font-family="Helvetica Neue, Helvetica, Arial, sans-serif"> Tommy</text><text class="caption" text-anchor="middle" pointer-events="none" x="0" y="10" font-size="10px" fill="#FFFFFF" font-family="Helvetica Neue, Helvetica, Arial, sans-serif"> J…</text></g><g class="node" aria-label="graph-node173" transform="translate(-6.2897436480044915,-141.31349189489623)"><circle class="b-outline" cx="0" cy="0" r="25" fill="#C990C0" stroke="#b261a5" stroke-width="2px"/><text class="caption" text-anchor="middle" pointer-events="none" x="0" y="0" font-size="10px" fill="#FFFFFF" font-family="Helvetica Neue, Helvetica, Arial, sans-serif"> Chris</text><text class="caption" text-anchor="middle" pointer-events="none" x="0" y="10" font-size="10px" fill="#FFFFFF" font-family="Helvetica Neue, Helvetica, Arial, sans-serif"> Evans</text></g><g class="node" aria-label="graph-node176" transform="translate(-98.27824442906038,-102.48843305337915)"><circle class="b-outline" cx="0" cy="0" r="25" fill="#C990C0" stroke="#b261a5" stroke-width="2px"/><text class="caption" text-anchor="middle" pointer-events="none" x="0" y="0" font-size="10px" fill="#FFFFFF" font-family="Helvetica Neue, Helvetica, Arial, sans-serif"> Sebastian</text><text class="caption" text-anchor="middle" pointer-events="none" x="0" y="10" font-size="10px" fill="#FFFFFF" font-family="Helvetica Neue, Helvetica, Arial, sans-serif"> Stan</text></g><g class="node" aria-label="graph-node174" transform="translate(-145.6053950259169,-14.610489850741653)"><circle class="b-outline" cx="0" cy="0" r="25" fill="#C990C0" stroke="#b261a5" stroke-width="2px"/><text class="caption" text-anchor="middle" pointer-events="none" x="0" y="0" font-size="10px" fill="#FFFFFF" font-family="Helvetica Neue, Helvetica, Arial, sans-serif"> Samuel L.</text><text class="caption" text-anchor="middle" pointer-events="none" x="0" y="10" font-size="10px" fill="#FFFFFF" font-family="Helvetica Neue, Helvetica, Arial, sans-serif"> Jackson</text></g><g class="node" aria-label="graph-node175" transform="translate(-126.87380853778002,83.59094233969118)"><circle class="b-outline" cx="0" cy="0" r="25" fill="#C990C0" stroke="#b261a5" stroke-width="2px"/><text class="caption" text-anchor="middle" pointer-events="none" x="0" y="0" font-size="10px" fill="#FFFFFF" font-family="Helvetica Neue, Helvetica, Arial, sans-serif"> Hayley</text><text class="caption" text-anchor="middle" pointer-events="none" x="0" y="10" font-size="10px" fill="#FFFFFF" font-family="Helvetica Neue, Helvetica, Arial, sans-serif"> Atwell</text></g><g class="node" aria-label="graph-node172" transform="translate(-45.42829235612765,149.60735765556612)"><circle class="b-outline" cx="0" cy="0" r="25" fill="#C990C0" stroke="#b261a5" stroke-width="2px"/><text class="caption" text-anchor="middle" pointer-events="none" x="0" y="0" font-size="10px" fill="#FFFFFF" font-family="Helvetica Neue, Helvetica, Arial, sans-serif"> Stephen</text><text class="caption" text-anchor="middle" pointer-events="none" x="0" y="10" font-size="10px" fill="#FFFFFF" font-family="Helvetica Neue, Helvetica, Arial, sans-serif"> McFe…</text></g></g></svg>